<svg xmlns="http://www.w3.org/2000/svg" viewBox="0 0 448 230" width="100%" height="100%">
  <path d="M 227 30 L 227 32 L 228 33 L 228 35 L 229 36 L 229 38 L 230 39 L 241 39 L 241 40 L 240 40 L 236 44 L 235 44 L 232 47 L 233 48 L 233 50 L 234 51 L 234 53 L 235 54 L 235 56 L 236 57 L 234 57 L 232 55 L 231 55 L 228 52 L 227 52 L 226 51 L 224 53 L 223 53 L 221 55 L 220 55 L 218 57 L 217 57 L 217 54 L 218 53 L 218 52 L 219 51 L 219 48 L 220 47 L 218 45 L 217 45 L 213 41 L 212 41 L 211 40 L 211 39 L 222 39 L 223 38 L 223 36 L 224 35 L 224 33 L 225 32 L 225 30 Z M 186 34 L 186 35 L 187 36 L 187 37 L 188 38 L 188 39 L 189 40 L 189 41 L 190 42 L 195 42 L 196 41 L 201 41 L 201 42 L 194 49 L 194 50 L 195 51 L 195 52 L 196 53 L 196 54 L 197 55 L 197 56 L 198 57 L 198 58 L 199 59 L 197 59 L 196 58 L 195 58 L 194 57 L 193 57 L 192 56 L 191 56 L 190 55 L 188 55 L 181 62 L 180 62 L 180 60 L 181 59 L 181 51 L 180 50 L 179 50 L 178 49 L 177 49 L 176 48 L 175 48 L 174 47 L 173 47 L 172 46 L 173 46 L 174 45 L 179 45 L 180 44 L 182 44 L 183 43 L 183 41 L 184 40 L 184 35 L 185 34 Z M 268 34 L 268 40 L 269 41 L 269 43 L 270 44 L 272 44 L 273 45 L 279 45 L 280 46 L 279 47 L 278 47 L 277 48 L 276 48 L 275 49 L 274 49 L 273 50 L 272 50 L 271 51 L 271 58 L 272 59 L 272 62 L 271 62 L 264 55 L 262 55 L 261 56 L 260 56 L 259 57 L 258 57 L 257 58 L 256 58 L 255 59 L 254 59 L 254 58 L 255 57 L 255 56 L 256 55 L 256 54 L 257 53 L 257 52 L 258 51 L 258 49 L 256 47 L 256 46 L 255 45 L 254 45 L 252 43 L 252 42 L 251 41 L 255 41 L 256 42 L 262 42 L 263 41 L 263 40 L 264 39 L 264 38 L 265 37 L 265 36 L 266 35 L 266 34 Z M 147 43 L 147 44 L 150 47 L 150 48 L 153 51 L 154 51 L 155 50 L 158 50 L 159 49 L 161 49 L 162 48 L 163 48 L 163 49 L 161 51 L 161 52 L 158 55 L 158 56 L 157 57 L 157 58 L 159 60 L 159 61 L 160 62 L 160 63 L 162 65 L 162 67 L 161 66 L 159 66 L 158 65 L 156 65 L 155 64 L 152 64 L 147 69 L 147 70 L 145 72 L 145 62 L 143 60 L 142 60 L 141 59 L 139 59 L 138 58 L 137 58 L 136 57 L 135 57 L 136 56 L 138 56 L 139 55 L 140 55 L 141 54 L 144 54 L 145 53 L 145 52 L 146 51 Z M 307 43 L 307 53 L 308 54 L 311 54 L 312 55 L 314 55 L 315 56 L 317 56 L 317 57 L 316 58 L 314 58 L 313 59 L 311 59 L 310 60 L 309 60 L 307 62 L 307 67 L 308 68 L 308 71 L 306 71 L 305 70 L 305 69 L 302 66 L 302 65 L 301 64 L 297 64 L 296 65 L 294 65 L 293 66 L 292 66 L 291 67 L 290 67 L 290 66 L 291 65 L 291 64 L 293 62 L 293 61 L 295 59 L 295 56 L 292 53 L 292 52 L 289 49 L 289 48 L 290 48 L 291 49 L 294 49 L 295 50 L 297 50 L 298 51 L 300 51 L 301 50 L 301 49 L 304 46 L 304 45 Z M 112 59 L 112 60 L 116 64 L 117 64 L 118 63 L 119 63 L 120 62 L 122 62 L 123 61 L 124 61 L 125 60 L 126 60 L 126 61 L 125 62 L 125 63 L 124 64 L 124 65 L 122 67 L 122 68 L 121 69 L 121 70 L 123 72 L 123 73 L 127 77 L 127 79 L 126 78 L 124 78 L 123 77 L 120 77 L 119 76 L 117 76 L 115 78 L 115 79 L 113 81 L 113 82 L 111 84 L 111 85 L 110 85 L 110 75 L 109 74 L 107 74 L 106 73 L 104 73 L 103 72 L 100 72 L 99 71 L 100 71 L 101 70 L 102 70 L 103 69 L 105 69 L 106 68 L 107 68 L 109 66 Z M 344 56 L 344 64 L 343 65 L 343 66 L 345 68 L 347 68 L 348 69 L 349 69 L 350 70 L 351 70 L 352 71 L 353 71 L 352 72 L 350 72 L 349 73 L 346 73 L 345 74 L 344 74 L 343 75 L 343 84 L 342 85 L 340 83 L 340 82 L 338 80 L 338 79 L 335 76 L 334 76 L 333 77 L 329 77 L 328 78 L 326 78 L 325 79 L 325 78 L 328 75 L 328 74 L 331 71 L 331 68 L 329 66 L 329 65 L 328 64 L 328 63 L 326 61 L 326 60 L 327 60 L 328 61 L 330 61 L 331 62 L 332 62 L 333 63 L 335 63 L 336 64 L 342 58 L 342 57 Z M 65 98 L 66 99 L 66 102 L 67 103 L 67 107 L 68 108 L 68 113 L 69 114 L 69 117 L 70 118 L 70 123 L 71 124 L 71 129 L 72 130 L 72 134 L 73 135 L 73 139 L 74 140 L 74 144 L 75 145 L 75 150 L 76 151 L 76 157 L 77 158 L 77 161 L 78 162 L 78 164 L 79 165 L 80 164 L 80 162 L 81 161 L 81 158 L 82 157 L 82 152 L 83 151 L 83 145 L 84 144 L 84 141 L 85 140 L 85 136 L 86 135 L 86 131 L 87 130 L 87 125 L 88 124 L 88 119 L 89 118 L 89 114 L 90 113 L 90 111 L 91 110 L 91 104 L 92 103 L 92 100 L 93 99 L 93 98 L 107 98 L 108 99 L 108 103 L 107 104 L 107 108 L 106 109 L 106 113 L 105 114 L 105 118 L 104 119 L 104 121 L 103 122 L 103 125 L 102 126 L 102 130 L 101 131 L 101 135 L 100 136 L 100 140 L 99 141 L 99 144 L 98 145 L 98 148 L 97 149 L 97 154 L 96 155 L 96 159 L 95 160 L 95 163 L 94 164 L 94 169 L 93 170 L 93 174 L 92 175 L 92 178 L 91 179 L 91 182 L 90 183 L 90 187 L 89 188 L 89 192 L 88 193 L 88 196 L 86 198 L 85 198 L 84 199 L 82 199 L 81 200 L 79 200 L 78 201 L 77 201 L 76 202 L 74 202 L 73 203 L 72 203 L 71 202 L 71 200 L 70 199 L 70 196 L 69 195 L 69 192 L 68 191 L 68 187 L 67 186 L 67 182 L 66 181 L 66 177 L 65 176 L 65 172 L 64 171 L 64 168 L 63 167 L 63 163 L 62 162 L 62 158 L 61 157 L 61 153 L 60 152 L 60 148 L 59 147 L 59 143 L 58 142 L 58 138 L 57 137 L 57 133 L 56 132 L 56 129 L 55 128 L 55 124 L 54 123 L 54 119 L 53 118 L 53 113 L 52 112 L 52 108 L 51 107 L 51 103 L 50 102 L 50 99 Z M 163 98 L 164 99 L 164 110 L 163 111 L 160 111 L 159 112 L 134 112 L 132 114 L 132 119 L 133 120 L 133 121 L 132 122 L 132 133 L 133 134 L 142 134 L 143 133 L 153 133 L 154 132 L 155 132 L 156 133 L 157 133 L 157 145 L 156 146 L 152 146 L 151 147 L 143 147 L 142 148 L 135 148 L 134 149 L 133 149 L 132 150 L 132 169 L 134 171 L 135 171 L 136 170 L 140 170 L 141 169 L 145 169 L 146 168 L 152 168 L 153 167 L 159 167 L 160 166 L 163 166 L 164 167 L 164 178 L 163 179 L 162 179 L 161 180 L 156 180 L 155 181 L 150 181 L 149 182 L 145 182 L 144 183 L 140 183 L 139 184 L 137 184 L 136 185 L 131 185 L 130 186 L 127 186 L 126 187 L 123 187 L 122 188 L 117 188 L 117 99 Z M 189 98 L 189 99 L 190 100 L 190 101 L 191 102 L 191 103 L 192 104 L 192 105 L 193 106 L 193 107 L 194 108 L 194 109 L 195 110 L 195 112 L 196 113 L 196 114 L 197 115 L 197 116 L 198 117 L 198 118 L 199 119 L 199 120 L 200 121 L 200 123 L 202 125 L 202 127 L 203 128 L 203 129 L 204 130 L 204 131 L 205 132 L 205 133 L 206 134 L 206 136 L 207 137 L 207 138 L 208 139 L 209 138 L 209 100 L 210 99 L 210 98 L 224 98 L 225 99 L 225 174 L 224 175 L 211 175 L 208 172 L 208 170 L 207 169 L 207 168 L 206 167 L 206 166 L 205 165 L 205 164 L 204 163 L 204 162 L 203 161 L 203 160 L 202 159 L 202 157 L 201 156 L 201 155 L 200 154 L 200 153 L 199 152 L 199 151 L 198 150 L 198 149 L 197 148 L 197 146 L 196 145 L 196 144 L 195 143 L 195 142 L 194 141 L 194 139 L 192 137 L 192 136 L 191 135 L 190 136 L 190 174 L 189 175 L 189 176 L 186 176 L 185 177 L 177 177 L 176 178 L 175 177 L 174 177 L 174 100 L 175 99 Z M 282 98 L 283 99 L 283 110 L 282 111 L 253 111 L 252 112 L 252 129 L 253 130 L 259 130 L 260 131 L 276 131 L 276 132 L 277 133 L 277 143 L 276 144 L 253 144 L 252 145 L 252 161 L 254 163 L 265 163 L 266 164 L 274 164 L 275 165 L 282 165 L 283 166 L 283 178 L 274 178 L 273 177 L 263 177 L 262 176 L 245 176 L 244 175 L 237 175 L 236 174 L 236 100 L 237 99 Z M 327 98 L 328 99 L 331 99 L 332 100 L 333 100 L 334 101 L 335 101 L 337 103 L 337 104 L 338 105 L 338 106 L 339 107 L 339 108 L 340 109 L 340 113 L 341 114 L 341 128 L 340 129 L 331 129 L 330 128 L 326 128 L 325 127 L 325 116 L 324 115 L 324 114 L 322 112 L 318 112 L 317 111 L 315 111 L 314 112 L 311 112 L 309 114 L 309 130 L 308 131 L 308 165 L 309 166 L 309 167 L 311 169 L 312 169 L 313 170 L 317 170 L 318 171 L 322 171 L 325 168 L 325 158 L 326 157 L 333 157 L 334 158 L 339 158 L 341 160 L 341 175 L 340 176 L 340 179 L 339 180 L 339 181 L 335 185 L 334 185 L 333 186 L 323 186 L 322 185 L 318 185 L 317 184 L 314 184 L 313 183 L 308 183 L 307 182 L 306 182 L 305 181 L 303 181 L 302 180 L 301 180 L 298 177 L 297 177 L 297 176 L 295 174 L 295 173 L 294 172 L 294 171 L 293 170 L 293 150 L 292 149 L 292 135 L 293 134 L 293 124 L 292 123 L 292 120 L 293 119 L 293 108 L 294 107 L 294 106 L 295 105 L 295 104 L 298 101 L 299 101 L 300 100 L 301 100 L 302 99 L 304 99 Z M 386 98 L 387 99 L 389 99 L 390 100 L 391 100 L 392 101 L 393 101 L 395 103 L 395 104 L 397 106 L 397 107 L 398 108 L 398 109 L 399 110 L 399 112 L 400 113 L 400 191 L 399 192 L 399 195 L 398 196 L 398 198 L 396 200 L 396 201 L 395 202 L 394 202 L 392 204 L 384 204 L 383 203 L 381 203 L 380 202 L 377 202 L 376 201 L 374 201 L 373 200 L 372 200 L 371 199 L 368 199 L 367 198 L 366 198 L 365 197 L 364 197 L 363 196 L 362 196 L 361 195 L 360 195 L 355 190 L 355 189 L 354 188 L 354 187 L 353 186 L 353 185 L 352 184 L 352 181 L 351 180 L 351 112 L 352 111 L 352 108 L 353 107 L 353 106 L 354 105 L 354 104 L 356 102 L 357 102 L 359 100 L 360 100 L 361 99 L 363 99 Z M 373 114 L 370 114 L 368 116 L 368 117 L 367 118 L 367 179 L 368 180 L 368 181 L 370 183 L 371 183 L 372 184 L 374 184 L 375 185 L 377 185 L 378 186 L 381 186 L 384 183 L 384 118 L 383 117 L 383 116 L 382 115 L 381 115 L 380 114 L 378 114 L 377 113 Z" fill="currentColor" fill-rule="evenodd" />
</svg>